<svg width="24" height="24" viewBox="0 0 24 24" fill="none" xmlns="http://www.w3.org/2000/svg">
<path d="M17.3998 11.55V14.7C17.3998 17.6698 17.3998 19.1547 16.4772 20.0774C15.5545 21 14.0696 21 11.0998 21C8.12995 21 6.64503 21 5.72242 20.0774C4.7998 19.1547 4.7998 17.6698 4.7998 14.7V9.29999C4.7998 6.33015 4.7998 4.84522 5.72242 3.92262C6.64503 3 8.12995 3 11.0998 3C11.7724 3 11.4688 3 11.9998 3.01072" stroke="#123E4E" stroke-width="1.5" stroke-linecap="round" stroke-linejoin="round"/>
<path d="M11.2125 18.0751H11.1M11.325 18.0751C11.325 18.1994 11.2243 18.3001 11.1 18.3001C10.9757 18.3001 10.875 18.1994 10.875 18.0751C10.875 17.9508 10.9757 17.8501 11.1 17.8501C11.2243 17.8501 11.325 17.9508 11.325 18.0751Z" stroke="#123E4E" stroke-width="1.5" stroke-linecap="round" stroke-linejoin="round"/>
<path d="M16.4762 3.01933C16.4814 2.99356 16.5183 2.99356 16.5235 3.01933C16.797 4.35727 17.8425 5.40285 19.1805 5.67631C19.2063 5.68158 19.2063 5.71841 19.1805 5.72368C17.8425 5.99714 16.797 7.04272 16.5235 8.38066C16.5183 8.40644 16.4814 8.40644 16.4762 8.38066C16.2026 7.04272 15.1571 5.99714 13.8192 5.72368C13.7933 5.71841 13.7933 5.68158 13.8192 5.67631C15.1571 5.40285 16.2026 4.35727 16.4762 3.01933Z" stroke="#123E4E" stroke-width="1.5" stroke-linecap="round" stroke-linejoin="round"/>
</svg>
