<svg xmlns="http://www.w3.org/2000/svg" width="101" height="93" fill="none">
  <path fill="#fff" d="m85.836 28.805 1.365-2.828a5.334 5.334 0 0 0-5.207-7.636l-3.738.283a10.05 10.05 0 0 1-5.303-1.057l-10.1-5.122a14.5 14.5 0 0 0-6.094-1.56l-9.56-.306a11.7 11.7 0 0 1-5.432-1.536l-5.81-3.32a4.672 4.672 0 0 0-6.978 3.71l-.275 3.706a14.5 14.5 0 0 1-2.817 7.57L15.69 34.444a14.5 14.5 0 0 0-1.732 3.041L6.413 55.497c-3.393 8.101 1.138 17.335 9.622 19.608l46.547 12.472c9.56 2.562 20.408-4.955 21.936-14.734.908-5.806 1.804-11.752 2.193-16.337.074-.873.049-1.746-.052-2.617l-2.055-17.786c-.289-2.5.139-5.03 1.232-7.298"/>
  <path fill="#1a4993" d="M38.706 43.977c-2.156 8.043 4.057 11.496 9.05 12.834 4.996 1.338 12.133 1.334 14.256-6.589 2.082-7.768-4.129-13.524-8.549-14.708s-12.676.694-14.757 8.463"/>
  <path fill="#fffeff" d="M50.607 46.585c1.447.388 3.226-.462 3.995-1.775.23-.39.027-.864-.386-1.05-1.479-.662-3.715-1.245-5.313-1.417-.455-.05-.875.262-.853.72.075 1.535 1.377 3.206 2.557 3.522"/>
  <rect width="7.012" height="7.012" x="37.304" y="28.503" fill="#000" rx="3.506" transform="rotate(15 37.304 28.503)"/>
  <rect width="7.012" height="7.012" x="64.395" y="35.762" fill="#000" rx="3.506" transform="rotate(15 64.395 35.762)"/>
</svg>